<svg xmlns="http://www.w3.org/2000/svg" viewBox="0 0 140 132" fill="none">
  <path d="M62 112 C34 108, 22 84, 30 60 C38 34, 68 24, 92 36 C112 46, 116 74, 102 92 C94 102, 80 106, 70 100" stroke="#262119" stroke-width="7" stroke-linecap="round" stroke-linejoin="round"></path>
  <circle cx="56" cy="62" r="4" fill="#262119"></circle>
  <circle cx="82" cy="62" r="4" fill="#262119"></circle>
  <path d="M58 80 c4 5, 14 5, 18 0" stroke="#262119" stroke-width="6" stroke-linecap="round" stroke-linejoin="round"></path>
  <path d="M92 20 C98 10, 110 12, 112 22 C120 22, 124 32, 117 37 C110 42, 96 38, 92 30 z" fill="#6B87C8" transform="rotate(8 105 27)"></path>
  <path d="M34 34 C30 26, 38 20, 44 25" stroke="#D95B3F" stroke-width="6" stroke-linecap="round"></path>
</svg>